<svg width="60" height="78" viewBox="0 0 60 78" fill="none" xmlns="http://www.w3.org/2000/svg">
<path fill-rule="evenodd" clip-rule="evenodd" d="M60 0H0V60L30 77.7L60 60V0ZM20.4375 16.475C18.6776 16.475 17.25 17.9025 17.25 19.6625V45.5375C17.25 47.2974 18.6776 48.725 20.4375 48.725H39.5625C41.3224 48.725 42.75 47.2974 42.75 45.5375V35.975V32.0375V31.475C42.75 27.4967 41.1696 23.6814 38.3566 20.8684C35.5436 18.0553 31.7282 16.475 27.75 16.475H27.1875H24.375H20.4375ZM39.75 32.0375V35.975V45.5375C39.75 45.6405 39.6656 45.725 39.5625 45.725H20.4375C20.3344 45.725 20.25 45.6405 20.25 45.5375V19.6625C20.25 19.5594 20.3344 19.475 20.4375 19.475H24.375H27.1875C28.1323 19.475 29.0385 19.8503 29.7066 20.5184C30.3747 21.1865 30.75 22.0926 30.75 23.0375V25.2875C30.75 26.1329 31.0858 26.9436 31.6836 27.5414C32.2814 28.1392 33.0921 28.475 33.9375 28.475H36.1875C37.1323 28.475 38.0385 28.8503 38.7066 29.5184C39.3747 30.1865 39.75 31.0926 39.75 32.0375ZM33.75 23.0375C33.75 22.2961 33.6245 21.5676 33.3854 20.8805C34.4253 21.4336 35.3872 22.1416 36.2353 22.9897C37.0834 23.8378 37.7914 24.7997 38.3445 25.8396C37.6573 25.6004 36.9289 25.475 36.1875 25.475H33.9375C33.8878 25.475 33.8401 25.4552 33.8049 25.4201C33.7698 25.3849 33.75 25.3372 33.75 25.2875V23.0375ZM31.5 31.475C31.5 30.6465 30.8284 29.975 30 29.975C29.1716 29.975 28.5 30.6465 28.5 31.475V34.475H25.5C24.6716 34.475 24 35.1465 24 35.975C24 36.8034 24.6716 37.475 25.5 37.475H28.5V40.475C28.5 41.3034 29.1716 41.975 30 41.975C30.8284 41.975 31.5 41.3034 31.5 40.475V37.475H34.5C35.3284 37.475 36 36.8034 36 35.975C36 35.1465 35.3284 34.475 34.5 34.475H31.5V31.475Z" fill="#444444"/>
</svg>
