<svg width="60" height="78" viewBox="0 0 60 78" fill="none" xmlns="http://www.w3.org/2000/svg">
<path fill-rule="evenodd" clip-rule="evenodd" d="M60 0H0V60L30 77.7L60 60V0ZM23.775 17.325C22.3826 17.325 21.0473 17.8781 20.0627 18.8627C19.0781 19.8473 18.525 21.1826 18.525 22.575V42.825C18.525 44.2174 19.0781 45.5527 20.0627 46.5373C21.0473 47.5219 22.3826 48.075 23.775 48.075H32.775C34.1674 48.075 35.5027 47.5219 36.4873 46.5373C37.4719 45.5527 38.025 44.2174 38.025 42.825V37.2C38.025 36.1645 37.1855 35.325 36.15 35.325C35.1145 35.325 34.275 36.1645 34.275 37.2V42.825C34.275 43.2228 34.117 43.6044 33.8357 43.8857C33.5544 44.167 33.1728 44.325 32.775 44.325H23.775C23.3772 44.325 22.9956 44.167 22.7143 43.8857C22.433 43.6044 22.275 43.2228 22.275 42.825V22.575C22.275 22.1772 22.433 21.7956 22.7143 21.5143C22.9956 21.233 23.3772 21.075 23.775 21.075H32.775C33.1728 21.075 33.5544 21.233 33.8357 21.5143C34.117 21.7956 34.275 22.1772 34.275 22.575V28.2C34.275 29.2355 35.1145 30.075 36.15 30.075C37.1855 30.075 38.025 29.2355 38.025 28.2V22.575C38.025 21.1826 37.4719 19.8473 36.4873 18.8627C35.5027 17.8781 34.1674 17.325 32.775 17.325H23.775ZM31.8508 29.5258C32.5831 28.7936 32.5831 27.6064 31.8508 26.8742C31.1186 26.1419 29.9314 26.1419 29.1992 26.8742L24.6992 31.3742C23.9669 32.1064 23.9669 33.2936 24.6992 34.0258L29.1992 38.5258C29.9314 39.2581 31.1186 39.2581 31.8508 38.5258C32.5831 37.7936 32.5831 36.6064 31.8508 35.8742L30.5517 34.575H45.15C46.1855 34.575 47.025 33.7355 47.025 32.7C47.025 31.6645 46.1855 30.825 45.15 30.825H30.5517L31.8508 29.5258Z" fill="#444444"/>
</svg>
