<svg width="60" height="79" viewBox="0 0 60 79" fill="none" xmlns="http://www.w3.org/2000/svg">
<path fill-rule="evenodd" clip-rule="evenodd" d="M60 1H0V61L30 78.7L60 61V1ZM15.9171 22.1991C15.9046 22.2114 15.892 22.2238 15.8796 22.2363C14.8362 23.2797 14.25 24.6948 14.25 26.1704V43.968C14.25 45.4436 14.8362 46.8587 15.8796 47.9021C16.923 48.9455 18.3382 49.5317 19.8138 49.5317H37.6113C39.0869 49.5317 40.502 48.9455 41.5454 47.9021C42.5889 46.8587 43.175 45.4436 43.175 43.968V35.9167C43.175 34.9502 42.3915 34.1667 41.425 34.1667C40.4585 34.1667 39.675 34.9502 39.675 35.9167V43.968C39.675 44.5153 39.4576 45.0402 39.0706 45.4272C38.6835 45.8143 38.1586 46.0317 37.6113 46.0317H19.8138C19.2664 46.0317 18.7415 45.8143 18.3545 45.4272C17.9674 45.0402 17.75 44.5153 17.75 43.968V26.1704C17.75 25.7765 17.8626 25.3941 18.0701 25.0665L23.9346 32.8771L23.119 33.6927L23.1186 33.6931C22.0176 34.7947 21.2083 36.1532 20.7639 37.6459L20.7638 37.6463L19.4079 42.197C19.2244 42.8129 19.3932 43.4797 19.8476 43.9341C20.302 44.3885 20.9689 44.5573 21.5847 44.3738L26.1354 43.0179C27.6283 42.5735 28.9869 41.7642 30.0886 40.6631L30.0889 40.6628L48.0882 22.6636C49.0124 21.7393 49.5317 20.4857 49.5317 19.1785C49.5317 17.8714 49.0124 16.6178 48.0882 15.6935C47.1639 14.7693 45.9103 14.25 44.6032 14.25C43.296 14.25 42.0424 14.7693 41.1181 15.6935L41.1178 15.6939L38.2588 18.5546L38.2583 18.5551L23.9346 32.8771L26.0573 35.7042L25.5942 36.1673L25.5937 36.1677C24.9038 36.8581 24.3968 37.7095 24.1183 38.645L24.1181 38.6453L23.686 40.0957L25.1364 39.6636L25.1367 39.6635C26.0722 39.3849 26.9236 38.8778 27.6141 38.1879L27.6144 38.1875L27.7901 38.0119M27.7901 38.0119L41.5155 24.2864L39.496 22.2669L26.0573 35.7042L27.7901 38.0119ZM15.9171 22.1991C16.9568 21.1789 18.3558 20.6067 19.8138 20.6067H27.865C28.8315 20.6067 29.615 21.3902 29.615 22.3567C29.615 23.3232 28.8315 24.1067 27.865 24.1067H19.8138C19.2664 24.1067 18.7415 24.3241 18.3545 24.7111C18.246 24.8196 18.1509 24.9389 18.0701 25.0665L15.9171 22.1991ZM43.593 18.1684L43.5934 18.168C43.8613 17.9004 44.2245 17.75 44.6032 17.75C44.982 17.75 45.3454 17.9005 45.6133 18.1684C45.8812 18.4363 46.0317 18.7997 46.0317 19.1785C46.0317 19.5574 45.8812 19.9208 45.6133 20.1887L43.9904 21.8116L41.9706 19.7918L43.593 18.1684Z" fill="#444444"/>
</svg>
