<svg width="201" height="32" viewBox="0 0 201 32" fill="none" xmlns="http://www.w3.org/2000/svg">
<path d="M5.08592 27.5556H0.641479V23.1111H9.53037V27.5556H18.4193V18.6667H5.08592V14.2222H0.641479V5.33333H5.08592V0.888891H22.8637V5.33333H27.3081V9.77778H18.4193V5.33333H9.53037V14.2222H22.8637V18.6667H27.3081V27.5556H22.8637V32H5.08592V27.5556ZM45.0686 32V14.2222H40.6241V32H31.7352V9.77778H62.8463V14.2222H67.2908V32H58.4019V14.2222H53.9575V32H45.0686ZM71.7352 32V9.77778H80.6241V32H71.7352ZM71.7352 5.33333V0.888891H80.6241V5.33333H71.7352ZM93.9444 32H85.0555V0.888891H93.9444V32ZM120.598 9.77778V14.2222H125.043V23.1111H107.265V27.5556H125.043V32H102.82V27.5556H98.3759V14.2222H102.82V9.77778H120.598ZM116.154 14.2222H107.265V18.6667H116.154V14.2222ZM138.358 32H129.47V27.5556H138.358V32ZM147.234 27.5556H142.79V5.33333H147.234V0.888891H165.012V5.33333H169.457V9.77778H160.568V5.33333H151.679V27.5556H160.568V23.1111H169.457V27.5556H165.012V32H147.234V27.5556ZM178.328 27.5556H173.884V14.2222H178.328V9.77778H196.106V14.2222H200.55V27.5556H196.106V32H178.328V27.5556ZM191.661 14.2222H182.773V27.5556H191.661V14.2222Z" fill="black"/>
</svg>
